<svg preserveAspectRatio="none" overflow="visible" style="display: block;" width="766.654" height="726.75" viewBox="0 0 766.654 726.75" fill="none" xmlns="http://www.w3.org/2000/svg">
<g id="Group" style="mix-blend-mode:color-dodge" opacity="0.1">
<path id="Vector" d="M684.192 372.79C721.486 399.678 678.775 479.97 652.238 524.046C619.445 578.512 615.923 617.505 558.288 644.796C542.853 652.106 489.703 693.391 447.932 642.558C423.598 612.945 409.009 705.422 343.562 642.736C310.031 610.619 271.946 636.573 234.215 611.666C184.61 578.923 78.0231 590.141 51.8064 537.439C28.5609 490.708 70.465 398.201 56.1689 338.53C42.3261 280.752 101.89 234.124 133.908 184.467C173.254 123.447 222.64 133.455 274.585 112.901C310.578 98.5633 303.735 56.2954 378.15 58.3075C445.598 60.1313 428.279 151.241 479.626 186.914C516.794 212.702 636.167 170.192 659.385 208.972C687.39 255.747 630.246 333.896 684.193 372.791L684.192 372.79Z" stroke="#98E9FF" stroke-width="0.5" stroke-miterlimit="10"/>
<path id="Vector_2" d="M686.022 372.791C729.075 397.65 681.156 484.768 652.594 530.348C618.125 585.355 611.329 622.374 551.68 648.92C535.992 655.901 483.837 693.118 441.751 645.488C416.492 616.903 401.762 706.832 337.549 648.197C302.495 616.187 267.629 633.375 229.585 606.909C179.404 572 73.7952 581.708 48.3725 526.463C27.2121 480.479 70.1941 393.12 53.2897 334.398C37.5158 279.602 99.4214 234.393 129.5 185.547C169.858 120.007 220.805 136.575 273.675 115.337C310.507 100.438 296.965 52.0605 377.988 54.4695C445.845 56.4872 432.61 145.548 484.401 181.268C521.97 207.143 639.442 165.96 663.052 204.925C691.93 252.582 622.486 336.105 686.022 372.791Z" stroke="#93E8FF" stroke-width="0.5" stroke-miterlimit="10"/>
<path id="Vector_3" d="M687.847 372.793C736.659 395.712 683.549 489.578 652.944 536.651C616.821 592.214 606.743 627.266 545.067 653.044C529.131 659.705 477.883 692.881 435.565 648.42C409.342 620.869 394.368 708.356 331.531 653.658C294.906 621.777 263.309 630.176 224.951 602.153C174.196 565.074 69.4907 573.338 44.9333 515.487C25.7581 470.316 70.0166 388.08 50.4053 330.267C32.834 278.467 96.8476 234.591 125.086 186.628C166.372 116.5 218.964 139.696 272.76 117.774C310.431 102.315 290.19 47.81 377.821 50.6329C446.086 52.8318 436.936 139.856 489.172 175.624C527.142 201.586 642.715 161.728 666.715 200.879C696.468 249.417 614.713 338.454 687.847 372.792L687.847 372.793Z" stroke="#8DE7FF" stroke-width="0.5" stroke-miterlimit="10"/>
<path id="Vector_4" d="M689.677 372.791C744.268 393.836 685.964 494.396 653.301 542.951C615.541 599.082 602.173 632.18 538.459 657.166C522.277 663.512 471.855 692.683 429.384 651.349C402.155 624.848 386.852 709.987 325.518 659.117C287.271 627.396 258.996 626.971 220.322 597.395C168.995 558.142 65.1052 565.02 41.4996 504.51C24.2148 460.202 69.957 383.06 47.5264 326.133C28.2955 277.328 94.1925 234.732 120.677 187.706C162.792 112.924 217.128 142.816 271.85 120.208C310.361 104.189 283.421 43.5409 377.659 46.7938C446.334 49.1643 441.267 134.162 493.947 169.978C532.318 196.026 645.996 157.492 670.382 196.832C701.014 246.248 606.964 340.907 689.676 372.791H689.677Z" stroke="#88E5FF" stroke-width="0.5" stroke-miterlimit="10"/>
<path id="Vector_5" d="M691.505 372.792C751.901 392.008 688.393 499.226 653.655 549.253C614.276 605.964 597.61 637.118 531.849 661.29C515.424 667.327 465.746 692.538 423.202 654.279C394.925 628.852 379.218 711.73 319.503 664.578C279.584 633.056 254.684 623.765 215.691 592.638C163.795 551.209 60.6177 556.754 38.064 493.534C22.5807 450.133 70.022 378.042 44.6456 322.001C23.8938 276.173 91.4589 234.831 116.266 188.785C159.097 109.285 215.291 145.936 270.939 122.644C310.288 106.064 276.651 39.2569 377.496 42.9562C446.581 45.4902 445.597 128.469 498.721 164.333C537.493 190.468 649.277 153.255 674.048 192.785C705.563 243.078 599.246 343.438 691.505 372.792Z" stroke="#83E4FF" stroke-width="0.5" stroke-miterlimit="10"/>
<path id="Vector_6" d="M693.324 372.79C759.553 390.209 690.826 504.066 654.001 555.552C613.016 612.854 593.047 642.077 525.231 665.411C508.564 671.145 459.558 692.448 417.011 657.208C387.644 632.884 371.474 713.58 313.48 670.036C271.834 638.767 250.365 620.556 211.052 587.878C158.59 544.27 56.0069 548.529 34.6204 482.555C20.8549 440.092 70.2167 372.997 41.7565 317.867C19.6186 274.983 88.6499 234.893 111.847 189.863C155.266 105.579 213.445 149.054 270.019 125.077C310.208 107.937 269.873 34.9548 377.324 39.1162C446.819 41.8075 449.918 122.774 503.486 158.686C542.659 184.907 652.552 149.015 677.704 188.736C710.105 239.904 591.554 346.022 693.324 372.79L693.324 372.79Z" stroke="#7DE2FF" stroke-width="0.5" stroke-miterlimit="10"/>
<path id="Vector_7" d="M695.148 372.79C767.233 388.436 693.276 508.918 654.35 561.854C611.772 619.758 588.494 647.063 518.616 669.534C501.71 674.971 453.308 692.425 410.824 660.138C380.324 636.96 363.644 715.537 307.46 675.497C264.032 644.546 246.051 617.347 206.417 583.121C153.391 537.332 51.2697 540.343 31.18 471.579C19.0548 430.075 70.5623 367.9 38.8708 313.734C15.4737 273.745 85.7836 234.932 107.432 190.942C151.294 101.81 211.603 152.173 269.103 127.512C310.131 109.811 263.1 30.6387 377.156 35.2776C447.061 38.1206 454.243 117.081 508.255 153.04C547.83 179.348 655.834 144.775 681.366 184.689C714.655 236.729 583.899 348.643 695.148 372.79Z" stroke="#78E1FF" stroke-width="0.5" stroke-miterlimit="10"/>
<path id="Vector_8" d="M696.976 372.793C774.94 386.68 695.743 513.783 654.704 568.159C610.542 626.674 583.95 652.075 512.006 673.66C494.861 678.805 447.007 692.477 404.641 663.072C372.969 641.089 355.743 717.603 301.446 680.96C256.175 650.409 241.745 614.139 201.786 578.367C148.199 530.394 46.3915 532.19 27.7448 460.605C17.1871 420.074 71.0678 362.716 35.9904 309.605C11.4484 272.445 82.8688 234.956 103.021 192.024C147.166 97.9804 209.766 155.296 268.192 129.95C310.059 111.689 256.332 26.3106 376.993 31.4425C447.309 34.4332 458.572 111.39 513.029 147.397C553.005 173.792 659.122 140.537 685.032 180.645C719.212 233.556 576.279 351.295 696.976 372.793Z" stroke="#73DFFF" stroke-width="0.5" stroke-miterlimit="10"/>
<path id="Vector_9" d="M698.803 372.791C782.665 384.93 698.217 518.655 655.057 574.459C609.32 633.595 579.408 657.105 505.395 677.782C488.011 682.639 440.659 692.6 398.457 666C365.577 645.275 347.779 719.767 295.43 686.419C248.256 656.367 237.438 610.925 197.154 573.608C143.007 523.449 41.3498 524.053 24.3076 449.627C15.2502 410.072 71.7276 357.403 33.108 305.471C7.51812 271.06 79.9031 234.964 98.609 193.101C142.855 94.0816 207.927 158.414 267.279 132.384C309.985 113.562 249.564 21.9632 376.828 27.603C447.556 30.7373 462.9 105.696 517.801 141.75C558.178 168.232 662.41 136.294 688.695 176.597C723.77 230.377 568.683 353.958 698.803 372.791Z" stroke="#6DDEFF" stroke-width="0.5" stroke-miterlimit="10"/>
<path id="Vector_10" d="M700.625 372.79C790.402 383.186 700.698 523.536 655.406 580.759C608.101 640.525 574.863 662.157 498.779 681.903C481.157 686.476 434.275 692.805 392.269 668.928C358.147 649.533 339.762 722.032 289.409 691.877C240.267 662.447 233.206 607.631 192.518 568.849C137.918 516.397 36.1262 515.929 20.8664 438.649C13.2476 400.066 72.5361 351.927 30.2212 301.337C3.66044 269.581 76.8885 234.967 94.1925 194.179C138.34 90.1184 206.083 161.533 266.361 134.818C309.907 115.435 242.793 17.6007 376.658 23.763C447.798 27.0379 467.224 100.001 522.569 136.103C563.347 162.672 665.696 132.048 692.355 172.547C728.327 227.195 561.106 356.633 700.625 372.79Z" stroke="#68DDFF" stroke-width="0.5" stroke-miterlimit="10"/>
<path id="Vector_11" d="M702.457 372.791C798.163 381.45 703.196 528.429 655.763 587.062C606.897 647.467 570.329 667.235 492.173 686.028C474.312 690.323 427.881 693.097 386.09 671.861C350.701 653.878 331.722 724.402 283.398 697.339C232.22 668.677 228.899 604.43 187.891 564.093C132.725 509.468 30.7182 507.81 17.4342 427.674C11.1977 390.051 73.4946 346.255 27.3438 297.206C-0.135172 268.001 73.8421 234.973 89.7854 195.26C133.61 86.0951 204.25 164.654 265.453 137.255C309.838 117.312 236.032 13.2271 376.499 19.9265C448.051 23.3391 471.557 94.3093 527.347 130.459C568.526 157.114 668.993 127.805 696.025 168.502C732.896 224.015 553.558 359.32 702.457 372.791Z" stroke="#63DBFF" stroke-width="0.5" stroke-miterlimit="10"/>
<path id="Vector_12" d="M704.278 372.789C805.925 379.714 705.692 533.328 656.111 593.361C605.689 654.412 565.784 672.33 485.557 690.149C467.457 694.169 421.476 693.469 379.901 674.788C343.228 658.31 323.655 726.867 277.376 702.797C224.093 675.082 224.581 601.224 183.253 559.334C127.521 502.536 25.0907 499.678 13.9923 416.695C9.08603 380.011 74.5651 340.345 24.4567 293.071C-3.9143 266.304 70.748 234.981 85.3682 196.336C128.623 82.0046 202.406 167.771 264.535 139.687C309.759 119.184 229.261 8.83523 376.328 16.0856C448.293 19.6336 475.88 88.6133 532.114 124.811C573.694 151.553 672.352 123.51 699.684 164.453C737.555 220.764 546.016 362.007 704.278 372.789Z" stroke="#5DDAFF" stroke-width="0.5" stroke-miterlimit="10"/>
<path id="Vector_13" d="M706.103 372.792C813.701 377.984 708.199 538.242 656.462 599.665C604.489 661.37 561.242 677.451 478.943 694.275C460.604 698.024 415.087 693.931 373.715 677.721C335.75 662.847 315.594 729.438 271.358 708.26C215.898 681.708 220.267 598.025 178.619 554.579C122.32 495.608 19.2424 491.528 10.5532 405.721C6.93055 369.948 75.7317 334.182 21.5723 288.941C-7.69154 264.495 67.6217 235.005 80.9542 197.418C123.363 77.8591 200.565 170.894 263.62 142.125C309.684 121.062 222.495 4.43406 376.161 12.2501C448.539 15.9315 480.206 82.9227 536.884 119.168C578.865 145.997 675.629 119.275 703.346 160.408C742.1 217.595 538.491 364.703 706.103 372.792L706.103 372.792Z" stroke="#58D8FF" stroke-width="0.5" stroke-miterlimit="10"/>
<path id="Vector_14" d="M707.941 372.794C821.498 376.255 710.726 543.162 656.826 605.968C603.306 668.333 556.711 682.59 472.343 698.399C453.764 701.881 408.741 694.472 367.543 680.653C328.289 667.486 307.57 732.106 265.353 713.721C207.649 688.592 215.966 594.824 173.999 549.823C117.133 488.679 13.1709 483.338 7.12814 394.746C4.7478 359.848 76.9709 327.745 18.7021 284.81C-11.4829 262.569 64.4762 235.044 76.5539 198.499C117.813 73.6563 198.738 174.016 262.719 144.562C309.622 122.938 215.759 -0.265757 376.008 8.41345C448.806 12.097 484.545 77.2309 541.668 113.524C584.05 140.439 678.92 115.039 707.021 156.363C746.66 214.424 530.992 367.4 707.941 372.794Z" stroke="#53D7FF" stroke-width="0.5" stroke-miterlimit="10"/>
<path id="Vector_15" d="M709.761 372.792C829.281 374.709 713.35 548.182 657.172 612.269C602.215 675.393 552.159 687.746 465.724 702.521C446.904 705.739 402.423 695.087 361.351 683.582C320.825 672.23 299.576 734.872 259.33 719.181C199.318 695.783 211.646 591.62 169.359 545.064C111.927 481.748 6.83244 475.092 3.68349 383.769C2.50881 349.703 78.2077 321.028 15.8119 280.676C-15.3474 260.525 61.2795 235.103 72.134 199.577C111.908 69.3991 196.891 177.134 261.798 146.996C309.54 124.812 208.982 -4.56167 375.835 4.57426C449.044 8.45171 488.866 71.5366 546.432 107.878C589.216 134.88 682.192 110.801 710.678 152.315C751.2 211.251 523.48 370.385 709.76 372.792L709.761 372.792Z" stroke="#4DD5FF" stroke-width="0.5" stroke-miterlimit="10"/>
<path id="Vector_16" d="M711.591 372.791C837.088 372.791 715.771 553.021 657.528 618.569C600.923 682.273 547.615 692.92 459.117 706.643C440.054 709.599 396.178 695.772 355.171 686.511C313.401 677.078 291.669 737.736 253.317 724.639C190.949 703.342 207.337 588.416 164.73 540.306C106.732 474.817 0.25 466.774 0.25 372.791C0.25 339.506 79.4304 314.047 12.9332 276.543C-19.2762 258.377 58.0649 235.19 67.7256 200.655C105.646 65.0988 195.056 180.253 260.889 149.431C309.47 126.686 202.216 -8.85767 375.674 0.735289C449.293 4.80666 493.198 65.8428 551.209 102.231C594.393 129.32 685.475 106.563 714.346 148.267C755.752 208.078 515.997 372.791 711.591 372.791L711.591 372.791Z" stroke="#48D4FF" stroke-width="0.5" stroke-miterlimit="10"/>
</g>
</svg>
